<?xml version="1.0" standalone="no"?>
<!DOCTYPE svg PUBLIC "-//W3C//DTD SVG 20010904//EN"
 "http://www.w3.org/TR/2001/REC-SVG-20010904/DTD/svg10.dtd">
<svg version="1.0" xmlns="http://www.w3.org/2000/svg"
 width="1280.000000pt" height="1105.000000pt" viewBox="0 0 1280.000000 1105.000000"
 preserveAspectRatio="xMidYMid meet">
<metadata>
Created by potrace 1.15, written by Peter Selinger 2001-2017
</metadata>
<g transform="translate(0.000000,1105.000000) scale(0.100000,-0.100000)"
fill="#000000" stroke="none">
<path d="M9315 10713 c-326 -30 -710 -122 -1095 -263 -63 -23 -239 -84 -391
-135 -152 -51 -343 -121 -425 -155 -623 -260 -781 -296 -1129 -256 -217 25
-347 65 -651 197 -600 261 -927 378 -1329 477 -364 90 -573 114 -900 102 -238
-10 -286 -16 -510 -71 -488 -120 -846 -296 -1177 -578 -130 -111 -296 -312
-411 -499 -127 -207 -306 -583 -361 -759 -37 -118 -103 -454 -121 -618 -14
-120 -14 -186 -6 -455 10 -296 13 -330 51 -558 54 -324 104 -509 225 -842 34
-92 195 -471 231 -543 45 -90 303 -555 392 -707 114 -194 384 -625 490 -780
154 -226 457 -632 596 -798 261 -313 712 -809 955 -1052 305 -305 523 -502
1087 -986 543 -465 655 -553 967 -758 349 -229 471 -294 613 -326 91 -20 159
-14 236 19 47 20 400 251 495 323 32 25 69 51 83 58 23 12 42 27 120 92 14 12
48 35 75 52 28 17 61 40 75 52 88 76 204 172 315 259 71 55 162 131 204 170
42 38 94 86 115 105 21 19 66 60 100 91 34 31 93 82 131 114 39 32 93 82 120
109 28 28 106 101 175 163 132 118 470 457 681 683 235 251 654 737 848 984
74 94 162 205 195 246 34 41 94 118 134 170 39 52 96 127 125 165 232 302 599
914 796 1327 171 357 252 574 365 978 187 661 230 1207 142 1786 -60 391 -282
914 -525 1233 -300 393 -717 755 -1133 982 -286 156 -650 232 -973 202z"/>
</g>
</svg>
